<svg width="33" height="36" viewBox="0 0 33 36" fill="none" xmlns="http://www.w3.org/2000/svg">
<g clip-path="url(#clip0_556_2350)">
<path fill-rule="evenodd" clip-rule="evenodd" d="M16.3586 0.00629966C15.7536 0.073604 15.2523 0.629256 15.2633 1.21934V2.49343C13.0841 2.75329 11.0571 3.73959 9.51186 5.29204C7.77229 7.02943 6.67386 9.34126 6.21186 11.8002L4.56186 20.5967C4.22243 22.4218 3.52314 22.7959 2.52686 23.4313C2.02871 23.7506 1.42057 24.0887 0.889429 24.6929C0.358286 25.2986 0 26.1799 0 27.2051C0 28.955 1.49286 30.4028 3.3 30.4028H10.3243C10.5411 33.5176 13.2314 36 16.5 36C19.7686 36 22.4604 33.5192 22.6757 30.4028H29.7C31.5071 30.4028 33 28.955 33 27.2051C33 26.1799 32.6417 25.2986 32.1106 24.6929C31.5794 24.0887 30.9713 23.7506 30.4731 23.4313C29.4769 22.7959 28.7776 22.4218 28.4366 20.5952L26.7866 11.8002C26.3261 9.34126 25.2277 7.0263 23.4866 5.29204C21.9417 3.7399 19.9154 2.75363 17.7367 2.49343V1.21934C17.7493 0.538474 17.0563 -0.0719612 16.3586 0.00629966ZM16.5 4.81621C18.6717 4.81621 20.3736 5.62073 21.7077 6.95273C23.0434 8.28473 23.9784 10.1755 24.3634 12.226L26.0134 21.0209C26.4817 23.5174 28.05 24.7477 29.1201 25.4301C29.6544 25.7729 30.0347 26.0249 30.228 26.244C30.4213 26.4616 30.5266 26.6338 30.5266 27.2051C30.5266 27.6684 30.1793 28.0033 29.7 28.0033H3.3C2.82229 28.0033 2.475 27.6684 2.475 27.2051C2.475 26.6338 2.57871 26.4616 2.772 26.2425C2.96529 26.0233 3.34557 25.7729 3.87986 25.4301C4.95 24.7477 6.51829 23.5174 6.98657 21.0209L8.63657 12.2244C9.02157 10.174 9.95814 8.28473 11.2923 6.95273C12.628 5.62073 14.3283 4.81621 16.5 4.81621ZM12.8653 30.4028H20.1347C20.0374 31.2911 19.6109 32.1112 18.9388 32.7029C18.2666 33.2945 17.397 33.6152 16.5 33.6021C14.5671 33.6021 13.0743 32.2138 12.8653 30.4028Z" fill="#195EA0"/>
</g>
<defs>
<clipPath id="clip0_556_2350">
<rect width="33" height="36" fill="white"/>
</clipPath>
</defs>
</svg>
