<svg width="19" height="19" viewBox="0 0 19 19" fill="none" xmlns="http://www.w3.org/2000/svg">
<path fill-rule="evenodd" clip-rule="evenodd" d="M15.6243 1.9L8.683 8.84133C8.50396 9.04061 8.40818 9.30097 8.41539 9.56876C8.4226 9.83656 8.53226 10.0914 8.72177 10.2807C8.91128 10.4701 9.1662 10.5795 9.434 10.5865C9.7018 10.5935 9.96208 10.4975 10.1612 10.3183L17.1 3.38073V5.7C17.1 5.95196 17.2001 6.19359 17.3782 6.37175C17.5564 6.54991 17.798 6.65 18.05 6.65C18.302 6.65 18.5436 6.54991 18.7218 6.37175C18.8999 6.19359 19 5.95196 19 5.7V0.948734C19 0.824038 18.9754 0.700565 18.9277 0.585377C18.8799 0.470189 18.8099 0.365545 18.7217 0.27743C18.6334 0.189316 18.5287 0.119459 18.4135 0.071855C18.2982 0.0242512 18.1747 -0.000165638 18.05 8.45649e-07H13.3C13.048 8.45649e-07 12.8064 0.10009 12.6282 0.278249C12.4501 0.456409 12.35 0.698045 12.35 0.950001C12.35 1.20196 12.4501 1.44359 12.6282 1.62175C12.8064 1.79991 13.048 1.9 13.3 1.9H15.6243ZM19 11.4V6.88307V16.6326C19 17.9398 18.0576 19 16.8935 19H2.10647C0.9424 19 0 17.936 0 16.6313V2.36867C0 1.05893 0.9424 8.45649e-07 2.10647 8.45649e-07H12.2474H7.59873C7.85069 8.45649e-07 8.09233 0.10009 8.27048 0.278249C8.44864 0.456409 8.54873 0.698045 8.54873 0.950001C8.54873 1.20196 8.44864 1.44359 8.27048 1.62175C8.09233 1.79991 7.85069 1.9 7.59873 1.9H2.44213C2.1394 1.9 1.90127 2.18373 1.90127 2.53333V16.4667C1.90127 16.8087 2.1432 17.1 2.44213 17.1H16.5604C16.8619 17.1 17.1013 16.8163 17.1013 16.4667V11.4C17.0966 11.2724 17.1177 11.1452 17.1633 11.0259C17.2089 10.9067 17.2781 10.7979 17.3667 10.7059C17.4553 10.614 17.5616 10.5409 17.6791 10.491C17.7966 10.4411 17.923 10.4153 18.0506 10.4153C18.1783 10.4153 18.3047 10.4411 18.4222 10.491C18.5397 10.5409 18.6459 10.614 18.7345 10.7059C18.8232 10.7979 18.8923 10.9067 18.9379 11.0259C18.9836 11.1452 19.0047 11.2724 19 11.4Z" fill="#195EA0"/>
</svg>
