<svg width="14" height="18" viewBox="0 0 14 18" fill="none" xmlns="http://www.w3.org/2000/svg">
<path d="M13.5651 4.89995L9.12507 0.439941C8.96507 0.279941 8.76507 0.199951 8.56507 0.199951H1.00508C0.565078 0.199951 0.205078 0.559951 0.205078 0.999951V17C0.205078 17.44 0.565078 17.8 1.00508 17.8H13.0051C13.4451 17.8 13.8051 17.44 13.8051 17V5.45996C13.8051 5.23996 13.7251 5.03995 13.5651 4.89995ZM12.2051 5.79995H8.20507V1.79995H8.24507L12.2051 5.79995ZM1.80508 16.2V1.79995H6.60507V6.57996C6.60507 7.02 6.94507 7.4 7.38507 7.4H12.2051V16.2H1.80508Z" fill="#195EA0"/>
</svg>
