<svg width="115" height="86" viewBox="0 0 115 86" fill="none" xmlns="http://www.w3.org/2000/svg">
<path d="M89.4002 76.1996C89.4002 76.5996 89.3002 76.9996 89.2002 77.3996C89.0002 77.7996 88.8002 78.0996 88.5002 78.3996C88.2002 78.6996 87.9002 78.8996 87.5002 79.0996C87.1002 79.2996 86.7002 79.2996 86.3002 79.2996C85.9002 79.2996 85.5002 79.1996 85.1002 79.0996C84.7002 78.8996 84.4002 78.6996 84.1002 78.3996C83.8002 78.0996 83.6002 77.7996 83.4002 77.3996C83.2002 76.9996 83.2002 76.5996 83.2002 76.1996C83.2002 75.7996 83.3002 75.3996 83.4002 74.9996C83.6002 74.5996 83.8002 74.2996 84.1002 73.9996C84.4002 73.6996 84.7002 73.4996 85.1002 73.2996C85.5002 73.0996 85.9002 73.0996 86.3002 73.0996C86.7002 73.0996 87.1002 73.1996 87.5002 73.2996C87.9002 73.4996 88.2002 73.6996 88.5002 73.9996C88.8002 74.2996 89.0002 74.5996 89.2002 74.9996C89.3002 75.3996 89.4002 75.7996 89.4002 76.1996Z" stroke="#DFDFDF" stroke-width="2.5052"/>
<path d="M65.5998 1.7998H107C107.8 1.7998 108.6 1.9998 109.4 2.2998C110.2 2.5998 110.8 3.0998 111.4 3.6998C112 4.2998 112.4 4.9998 112.8 5.6998C113.1 6.4998 113.3 7.2998 113.3 8.0998V78.0998C113.3 78.8998 113.1 79.6998 112.8 80.4998C112.5 81.2998 112 81.8998 111.4 82.4998C110.8 83.0998 110.1 83.4998 109.4 83.8998C108.6 84.1998 107.8 84.3998 107 84.3998H65.5998C64.7998 84.3998 63.9998 84.1998 63.1998 83.8998C62.3998 83.5998 61.7998 83.0998 61.1998 82.4998C60.5998 81.8998 60.1998 81.1998 59.7998 80.4998C59.4998 79.6998 59.2998 78.8998 59.2998 78.0998V7.9998C59.2998 7.1998 59.4998 6.3998 59.7998 5.5998C60.0998 4.7998 60.5998 4.1998 61.1998 3.5998C61.7998 2.9998 62.4998 2.5998 63.1998 2.1998C63.8998 1.9998 64.6998 1.7998 65.5998 1.7998Z" stroke="#DFDFDF" stroke-width="2.5052"/>
<path d="M73.0996 31.7998H100.6" stroke="#DFDFDF" stroke-width="2.5052" stroke-linecap="round" stroke-linejoin="round"/>
<path d="M73.0996 40.5996H100.6" stroke="#DFDFDF" stroke-width="2.5052" stroke-linecap="round" stroke-linejoin="round"/>
<path d="M73.0996 44.9004H100.6" stroke="#DFDFDF" stroke-width="2.5052" stroke-linecap="round" stroke-linejoin="round"/>
<path d="M73.0996 49.2998H100.6" stroke="#DFDFDF" stroke-width="2.5052" stroke-linecap="round" stroke-linejoin="round"/>
<path d="M73.0996 53.7002H100.6" stroke="#DFDFDF" stroke-width="2.5052" stroke-linecap="round" stroke-linejoin="round"/>
<path d="M73.0996 58.0996H100.6" stroke="#DFDFDF" stroke-width="2.5052" stroke-linecap="round" stroke-linejoin="round"/>
<path d="M74.5996 26.9002H76.9996L80.1996 22.7002L84.0996 26.9002L91.7996 19.2002L96.4996 23.1002L98.4996 20.9002" stroke="#DFDFDF" stroke-width="2.5052" stroke-linecap="round" stroke-linejoin="round"/>
<path d="M69.2998 9.2998H103.2C103.5 9.2998 103.9 9.3998 104.2 9.4998C104.5 9.5998 104.8 9.7998 105 9.9998C105.2 10.1998 105.4 10.4998 105.5 10.7998C105.6 11.0998 105.7 11.3998 105.7 11.7998V64.2998C105.7 64.5998 105.6 64.9998 105.5 65.2998C105.4 65.5998 105.2 65.8998 105 66.0998C104.8 66.2998 104.5 66.4998 104.2 66.5998C103.9 66.6998 103.6 66.7998 103.2 66.7998H69.2998C68.9998 66.7998 68.5998 66.6998 68.2998 66.5998C67.9998 66.4998 67.6998 66.2998 67.4998 66.0998C67.2998 65.8998 67.0998 65.5998 66.9998 65.2998C66.8998 64.9998 66.7998 64.6998 66.7998 64.2998V11.7998C66.7998 11.4998 66.8998 11.0998 66.9998 10.7998C67.0998 10.4998 67.2998 10.1998 67.4998 9.9998C67.6998 9.7998 67.9998 9.5998 68.2998 9.4998C68.6998 9.3998 68.9998 9.2998 69.2998 9.2998Z" stroke="#DFDFDF" stroke-width="2.5052"/>
<path d="M69.2998 9.2998H103.2C103.5 9.2998 103.9 9.3998 104.2 9.4998C104.5 9.5998 104.8 9.7998 105 9.9998C105.2 10.1998 105.4 10.4998 105.5 10.7998C105.6 11.0998 105.7 11.3998 105.7 11.7998V64.2998C105.7 64.5998 105.6 64.9998 105.5 65.2998C105.4 65.5998 105.2 65.8998 105 66.0998C104.8 66.2998 104.5 66.4998 104.2 66.5998C103.9 66.6998 103.6 66.7998 103.2 66.7998H69.2998C68.9998 66.7998 68.5998 66.6998 68.2998 66.5998C67.9998 66.4998 67.6998 66.2998 67.4998 66.0998C67.2998 65.8998 67.0998 65.5998 66.9998 65.2998C66.8998 64.9998 66.7998 64.6998 66.7998 64.2998V11.7998C66.7998 11.4998 66.8998 11.0998 66.9998 10.7998C67.0998 10.4998 67.2998 10.1998 67.4998 9.9998C67.6998 9.7998 67.9998 9.5998 68.2998 9.4998C68.6998 9.3998 68.9998 9.2998 69.2998 9.2998Z" stroke="#DFDFDF" stroke-width="2.5052"/>
<path d="M36.3002 42.1998C36.7002 41.9998 37.2002 41.8998 37.7002 41.7998C38.2002 41.7998 38.7002 41.7998 39.2002 41.9998C39.7002 42.1998 40.1002 42.3998 40.5002 42.6998C40.9002 42.9998 41.2002 43.3998 41.4002 43.8998L48.3002 57.8998C48.5002 58.2998 48.6002 58.7998 48.7002 59.2998C48.7002 59.7998 48.7002 60.2998 48.5002 60.6998C48.3002 61.1998 48.1002 61.5998 47.8002 61.9998C47.5002 62.3998 47.1002 62.6998 46.6002 62.8998C46.2002 63.0998 45.7002 63.1998 45.2002 63.2998C44.7002 63.2998 44.2002 63.2998 43.7002 63.0998C43.2002 62.8998 42.8002 62.6998 42.4002 62.3998C42.0002 62.0998 41.7002 61.6998 41.5002 61.1998L34.6002 47.1998C34.4002 46.7998 34.3002 46.2998 34.2002 45.7998C34.2002 45.2998 34.2002 44.7998 34.4002 44.3998C34.6002 43.8998 34.8002 43.4998 35.1002 43.0998C35.5002 42.6998 35.9002 42.3998 36.3002 42.1998Z" stroke="#DFDFDF" stroke-width="2.5052" stroke-linecap="round" stroke-linejoin="round"/>
<path d="M43 44.6997C44.9 43.7997 47.1 44.5997 48 46.3997L51.3 53.1997C52.2 55.0997 51.4 57.2997 49.6 58.1997" stroke="#DFDFDF" stroke-width="2.5052" stroke-linecap="round" stroke-linejoin="round"/>
<path d="M6.59983 60.4004C4.69983 61.3004 3.99983 63.5004 4.89983 65.4004L8.19983 72.2004C9.09983 74.1004 11.3998 74.8004 13.1998 73.9004" stroke="#DFDFDF" stroke-width="2.5052" stroke-linecap="round" stroke-linejoin="round"/>
<path d="M8.69961 54.6998C9.09961 54.4998 9.59961 54.3998 10.0996 54.2998C10.5996 54.2998 11.0996 54.2998 11.5996 54.4998C12.0996 54.6998 12.4996 54.8998 12.8996 55.1998C13.2996 55.4998 13.5996 55.8998 13.7996 56.3998L20.6996 70.3998C20.8996 70.7998 20.9996 71.2998 21.0996 71.7998C21.0996 72.2998 21.0996 72.7998 20.8996 73.1998C20.6996 73.6998 20.4996 74.0998 20.1996 74.4998C19.8996 74.8998 19.4996 75.1998 18.9996 75.3998C18.5996 75.5998 18.0996 75.6998 17.5996 75.7998C17.0996 75.7998 16.5996 75.7998 16.0996 75.5998C15.5996 75.3998 15.1996 75.1998 14.7996 74.8998C14.3996 74.5998 14.0996 74.1998 13.8996 73.6998L6.99961 59.6998C6.79961 59.2998 6.69961 58.7998 6.59961 58.2998C6.59961 57.7998 6.59961 57.2998 6.79961 56.8998C6.99961 56.3998 7.19961 55.9998 7.49961 55.5998C7.89961 55.1998 8.29961 54.8998 8.69961 54.6998Z" stroke="#DFDFDF" stroke-width="2.5052" stroke-linecap="round" stroke-linejoin="round"/>
<path d="M46.7 44.9002C46.7 36.6002 41.8 29.3002 34.5 25.2002" stroke="#DFDFDF" stroke-width="2.5052"/>
<path d="M33 27.9998C30.4 27.1998 27.7 26.7998 24.8 26.7998C14.5 26.7998 5.6 32.2998 2 40.1998" stroke="#DFDFDF" stroke-width="2.5052" stroke-linecap="round" stroke-linejoin="round"/>
<path d="M35.2002 23.1C31.6002 21.4 27.9002 20.5 23.5002 20.5C14.0002 20.5 5.8002 25.2 1.7002 32" stroke="#DFDFDF" stroke-width="2.5052" stroke-linecap="round" stroke-linejoin="round"/>
<path d="M33 27.9998L35.1 23.7998" stroke="#DFDFDF" stroke-width="2.5052" stroke-linecap="round" stroke-linejoin="round"/>
</svg>
