<svg width="24" height="22" viewBox="0 0 24 22" fill="none" xmlns="http://www.w3.org/2000/svg">
<g clip-path="url(#clip0_547_1544)">
<path d="M21.8002 9.8999V21.5999H2.2002V9.8999" stroke="#1C314E"/>
<path d="M0.5 9.6001H23.5V5.1001H0.5V9.6001Z" stroke="#1C314E"/>
<path d="M12.7 4.7002C13.2 3.5002 14.7 1.7002 16.4 1.7002C17.3 1.7002 17.9 2.6002 17.9 3.4002C17.9 4.2002 17.1 4.6002 16.2 4.7002H12.7ZM16.5 0.200195C14.2 0.200195 12.8 1.9002 12 3.5002C11.2 2.0002 9.8 0.200195 7.5 0.200195C5.7 0.200195 4.5 1.7002 4.5 3.5002C4.5 4.0002 4.7 4.4002 5.1 4.8002H7.5C6.7 4.7002 6.1 4.3002 6 3.5002C6.1 2.5002 6.6 1.9002 7.5 1.7002C9.3 1.7002 10.7 3.5002 11.2 4.7002H19.2C19.4 4.2002 19.6 4.0002 19.6 3.4002C19.5 1.7002 18.2 0.200195 16.5 0.200195Z" fill="#1C314E"/>
<path d="M12 4.7002V21.9002" stroke="#1C314E"/>
</g>
<defs>
<clipPath id="clip0_547_1544">
<rect width="24" height="22" fill="white"/>
</clipPath>
</defs>
</svg>
