<svg width="36" height="32" viewBox="0 0 36 32" fill="none" xmlns="http://www.w3.org/2000/svg">
<path d="M6.3602 26.0743C3.4802 26.0743 1.2002 23.8225 1.2002 20.978V7.4669C1.2002 4.62246 3.4802 2.37061 6.3602 2.37061H27.6002C30.4802 2.37061 32.7602 4.62246 32.7602 7.4669V21.0965C32.7602 23.8225 30.6002 26.0743 27.8402 26.1928C26.8802 26.1928 26.1602 26.3113 25.6802 26.3113L22.2002 29.8669C21.3602 30.6965 20.0402 30.6965 19.2002 29.8669C18.8402 29.5113 18.6002 28.9188 18.6002 28.3262V26.0743H6.3602Z" stroke="#195EA0" stroke-width="2"/>
<path d="M10.6547 16.3681C11.5163 16.3681 12.2147 15.6783 12.2147 14.8274C12.2147 13.9764 11.5163 13.2866 10.6547 13.2866C9.79316 13.2866 9.09473 13.9764 9.09473 14.8274C9.09473 15.6783 9.79316 16.3681 10.6547 16.3681Z" fill="#195EA0"/>
<path d="M17.0151 16.3681C17.8766 16.3681 18.5751 15.6783 18.5751 14.8274C18.5751 13.9764 17.8766 13.2866 17.0151 13.2866C16.1535 13.2866 15.4551 13.9764 15.4551 14.8274C15.4551 15.6783 16.1535 16.3681 17.0151 16.3681Z" fill="#195EA0"/>
<path d="M23.2543 16.3681C24.1159 16.3681 24.8143 15.6783 24.8143 14.8274C24.8143 13.9764 24.1159 13.2866 23.2543 13.2866C22.3928 13.2866 21.6943 13.9764 21.6943 14.8274C21.6943 15.6783 22.3928 16.3681 23.2543 16.3681Z" fill="#195EA0"/>
</svg>
