<svg width="32" height="32" viewBox="0 0 32 32" fill="none" xmlns="http://www.w3.org/2000/svg">
<path d="M27.3 20.7C27.2 22.5 26.8 24.2 25.5 25.5C24.2 26.8 22.5 27.3 20.7 27.3C18.8 27.4 13.2 27.4 11.3 27.3C9.5 27.2 7.9 26.8 6.5 25.5C5.2 24.2 4.7 22.5 4.7 20.7C4.6 18.8 4.6 13.2 4.7 11.3C4.8 9.5 5.2 7.8 6.5 6.5C7.8 5.2 9.5 4.7 11.3 4.7C13.2 4.6 18.8 4.6 20.7 4.7C22.5 4.8 24.2 5.2 25.5 6.5C26.8 7.8 27.3 9.5 27.3 11.3C27.5 13.2 27.5 18.8 27.3 20.7ZM28.6 0H3.4C2.5 0 1.6 0.4 1 1C0.4 1.6 0 2.5 0 3.4V28.5C0 29.4 0.4 30.3 1 30.9C1.6 31.5 2.5 31.9 3.4 31.9H28.5C29.4 31.9 30.3 31.5 30.9 30.9C31.5 30.3 31.9 29.4 31.9 28.5V3.4C31.9 2.5 31.5 1.6 30.9 1C30.4 0.4 29.5 0 28.6 0ZM22.1 11.3C21.8 11.3 21.6 11.2 21.3 11.1C21.1 10.9 20.9 10.7 20.8 10.5C20.7 10.3 20.7 10 20.7 9.7C20.8 9.4 20.9 9.2 21.1 9C21.3 8.8 21.5 8.7 21.8 8.6C22.1 8.5 22.3 8.6 22.6 8.7C22.8 8.8 23.1 9 23.2 9.2C23.4 9.4 23.4 9.7 23.4 10C23.4 10.2 23.4 10.4 23.3 10.5C23.2 10.7 23.1 10.8 23 10.9C22.9 11 22.7 11.1 22.6 11.2C22.5 11.2 22.3 11.3 22.1 11.3ZM16 21.9C14.8 21.9 13.7 21.6 12.7 20.9C11.7 20.3 11 19.3 10.5 18.3C10.1 17.2 9.9 16.1 10.2 14.9C10.4 13.8 11 12.7 11.8 11.9C12.6 11.1 13.7 10.5 14.8 10.3C15.9 10.1 17.1 10.2 18.2 10.6C19.3 11 20.2 11.8 20.8 12.8C21.4 13.8 21.8 14.9 21.8 16.1C21.8 16.9 21.7 17.6 21.4 18.3C21.1 19 20.7 19.7 20.1 20.2C19.6 20.7 18.9 21.2 18.2 21.5C17.5 21.7 16.8 21.9 16 21.9ZM24.9 9.3C24.7 8.8 24.4 8.4 24 8C23.6 7.6 23.2 7.3 22.7 7.1C21.2 6.5 17.6 6.6 16 6.6C14.3 6.6 10.8 6.5 9.3 7.1C8.8 7.3 8.3 7.6 8 7.9C7.6 8.3 7.3 8.8 7.1 9.3C6.5 10.8 6.6 14.4 6.6 16C6.6 17.7 6.5 21.2 7.1 22.7C7.3 23.2 7.6 23.7 8 24C8.4 24.4 8.8 24.7 9.3 24.9C10.8 25.5 14.4 25.4 16 25.4C17.7 25.4 21.2 25.5 22.7 24.9C23.2 24.7 23.6 24.4 24 24C24.4 23.6 24.7 23.2 24.9 22.7C25.5 21.2 25.4 17.6 25.4 16C25.4 14.3 25.5 10.8 24.9 9.3ZM16 12.2C15.2 12.2 14.5 12.4 13.9 12.8C13.3 13.2 12.8 13.8 12.5 14.5C12.2 15.2 12.1 16 12.3 16.7C12.4 17.4 12.8 18.1 13.3 18.7C13.8 19.2 14.5 19.6 15.3 19.7C16 19.8 16.8 19.8 17.5 19.5C18.2 19.2 18.8 18.7 19.2 18.1C19.6 17.5 19.8 16.7 19.8 16C19.8 15 19.4 14 18.7 13.3C18 12.6 17 12.2 16 12.2Z" fill="white"/>
</svg>
