<svg width="40" height="58" viewBox="0 0 40 58" fill="none" xmlns="http://www.w3.org/2000/svg">
<g clip-path="url(#clip0_547_1458)">
<path d="M30.226 19.961C29.811 19.961 29.4336 19.6221 29.4336 19.2455C29.4336 18.9818 29.5845 18.7182 29.8487 18.5675L37.3581 14.839C38.0374 14.5 38.4525 13.8597 38.4525 13.1818V2.5987C38.4525 1.9961 37.9242 1.50649 37.2827 1.50649H33.3581C32.943 1.50649 32.5657 1.16753 32.5657 0.753247C32.5657 0.338961 32.9053 0 33.3581 0H37.2449C38.7543 0 39.9996 1.16753 39.9996 2.5987V13.1818C39.9996 14.4247 39.2449 15.5922 38.0751 16.1571L30.6034 19.8857C30.4902 19.9234 30.3393 19.961 30.226 19.961Z" fill="#0A4D8D"/>
<path d="M9.4717 19.961C9.35849 19.961 9.20755 19.9234 9.09434 19.8857L1.88679 16.1948C0.716981 15.6299 0 14.4623 0 13.2195V2.5987C0 1.16753 1.20755 0 2.67925 0H27.9245C28.3396 0 28.6792 0.338961 28.6792 0.753247C28.6792 1.16753 28.3396 1.50649 27.9245 1.50649H2.71698C2.07547 1.50649 1.54717 1.9961 1.54717 2.63636V13.2571C1.54717 13.9727 1.96226 14.613 2.60377 14.9143L9.81132 18.5675C10.1887 18.7558 10.3396 19.2078 10.1509 19.5844C10.0377 19.8104 9.77359 19.961 9.4717 19.961Z" fill="#0A4D8D"/>
<path d="M20.0004 57.9999C19.2834 57.9999 18.6041 57.8116 17.9626 57.4726L2.03809 48.283C1.66073 48.057 1.54752 47.6051 1.77394 47.2285C2.00035 46.8519 2.45318 46.7389 2.83054 46.9272L18.7551 56.1168C19.5475 56.5687 20.4909 56.5687 21.2834 56.1168L37.2079 46.9272C38.0004 46.4752 38.4532 45.6467 38.4532 44.7428V26.4012C38.4532 25.4973 37.9626 24.6687 37.2079 24.2168L21.2834 15.0648C20.4909 14.6129 19.5475 14.6129 18.7551 15.0648L2.7928 24.2544C2.00035 24.7064 1.54752 25.535 1.54752 26.4389V40.7506C1.54752 41.1648 1.2079 41.5415 0.792803 41.5415C0.377709 41.5415 0.0380859 41.2025 0.0380859 40.7506V26.4389C0.0380859 24.97 0.830539 23.6518 2.07582 22.9363L18.0381 13.7466C19.2834 13.0311 20.8305 13.0311 22.0758 13.7466L38.0381 22.9363C39.2834 23.6518 40.0758 25.0077 40.0758 26.4389V44.7804C40.0758 46.2493 39.2834 47.5674 38.0381 48.283L22.0758 57.4726C21.3966 57.8116 20.7173 57.9999 20.0004 57.9999Z" fill="#FDA529"/>
<path d="M7.54671 27.4937C7.13161 27.4937 6.79199 27.1547 6.79199 26.7404C6.79199 26.4768 6.94294 26.2132 7.16935 26.1002L18.4146 19.7352C18.792 19.5093 19.2448 19.6223 19.4712 19.9612C19.6977 20.3002 19.5844 20.7898 19.2448 21.0158L19.2071 21.0534L7.9618 27.3807C7.8486 27.456 7.69765 27.4937 7.54671 27.4937Z" fill="#FDA529"/>
<path d="M20.9808 43.5001L26.2638 46.2118C26.4903 46.3248 26.7167 46.2871 26.9053 46.1741C27.094 46.0611 27.1695 45.8352 27.1318 45.6092L26.1129 39.8469C25.9997 39.1689 26.2261 38.4533 26.7544 37.9637L31.0186 33.8585C31.245 33.6326 31.245 33.2559 31.0186 33.03C30.9053 32.917 30.7921 32.8793 30.6789 32.8417L24.7921 32.0131C24.0752 31.9001 23.4714 31.4858 23.1695 30.8456L20.528 25.5728C20.377 25.2715 19.9997 25.1585 19.6978 25.3092C19.5846 25.3845 19.4714 25.4598 19.4337 25.5728L16.7921 30.8079C16.4525 31.4482 15.8487 31.8624 15.1695 31.9754L9.24497 32.8417C9.01856 32.8793 8.82988 33.03 8.75441 33.2559C8.67894 33.4819 8.75441 33.7079 8.90535 33.8585L13.1695 37.9637C13.6978 38.4533 13.9242 39.1689 13.7733 39.8469L12.7544 45.6092C12.7167 45.8352 12.7921 46.0611 12.9808 46.1741C13.1695 46.3248 13.4337 46.3248 13.6223 46.2118L18.9431 43.5001C19.6223 43.1988 20.377 43.1988 20.9808 43.5001ZM26.5657 47.8313C26.2261 47.8313 25.8865 47.7559 25.5469 47.5676L20.2638 44.8559C20.0752 44.7806 19.8487 44.7806 19.6978 44.8559L14.4148 47.5676C13.3582 48.1326 12.0374 47.7183 11.5091 46.6637C11.2827 46.2495 11.2072 45.7598 11.2827 45.3079L12.3016 39.5456C12.3393 39.3572 12.2638 39.1689 12.1129 39.0183L7.81101 34.9508C6.94309 34.1222 6.94309 32.804 7.77328 31.9378C8.1129 31.5988 8.52799 31.3728 9.01856 31.2975L14.9431 30.5066C15.1318 30.4689 15.3204 30.3559 15.3959 30.1676L18.0374 24.9326C18.5657 23.878 19.8865 23.4261 20.9431 23.9533C21.3582 24.1793 21.6978 24.5183 21.9242 24.9326L24.5657 30.1676C24.6412 30.3559 24.8299 30.4689 25.0186 30.5066L30.9431 31.3352C32.1129 31.4858 32.9431 32.578 32.7921 33.7456C32.7167 34.1975 32.4903 34.6495 32.1506 34.9884L27.8865 39.0936C27.7355 39.2443 27.6601 39.4326 27.6978 39.6209L28.7167 45.3832C28.8676 46.1741 28.528 47.0027 27.8487 47.4546C27.5091 47.6806 27.0563 47.8313 26.5657 47.8313Z" fill="#FDA529"/>
<path d="M18.868 40.6752C18.4529 40.6752 18.1133 40.3362 18.1133 39.8843V34.6869C18.1133 34.2726 18.4529 33.896 18.868 33.896C19.2831 33.896 19.6227 34.235 19.6227 34.6869V39.922C19.6227 40.3362 19.2831 40.6752 18.868 40.6752Z" fill="#FDA529"/>
<path d="M21.5096 40.6752C21.0945 40.6752 20.7549 40.3362 20.7549 39.8843V34.6869C20.7549 34.2726 21.0945 33.896 21.5096 33.896C21.9247 33.896 22.2643 34.235 22.2643 34.6869V39.922C22.2643 40.3362 21.9247 40.6752 21.5096 40.6752Z" fill="#FDA529"/>
<path d="M22.8299 35.4025H17.5469C17.0186 35.4025 16.6035 35.0635 16.6035 34.6492C16.6035 34.235 17.0186 33.896 17.5469 33.896H22.7922C23.3205 33.896 23.7356 34.235 23.7356 34.6492C23.7356 35.0635 23.3582 35.4025 22.8299 35.4025Z" fill="#FDA529"/>
<path d="M22.8299 40.6754H17.5469C17.0186 40.6754 16.6035 40.3365 16.6035 39.9222C16.6035 39.5079 17.0186 39.1689 17.5469 39.1689H22.8299C23.3582 39.1689 23.7733 39.5079 23.7733 39.9222C23.7733 40.3365 23.3582 40.6754 22.8299 40.6754Z" fill="#FDA529"/>
</g>
<defs>
<clipPath id="clip0_547_1458">
<rect width="40" height="58" fill="white"/>
</clipPath>
</defs>
</svg>
