<svg width="40" height="59" viewBox="0 0 40 59" fill="none" xmlns="http://www.w3.org/2000/svg">
<g clip-path="url(#clip0_547_1486)">
<path d="M30.226 20.3052C29.811 20.3052 29.4336 19.9604 29.4336 19.5773C29.4336 19.3091 29.5845 19.0409 29.8487 18.8877L37.3581 15.0948C38.0374 14.75 38.4525 14.0987 38.4525 13.4091V2.64351C38.4525 2.03052 37.9242 1.53247 37.2827 1.53247H33.3581C32.943 1.53247 32.5657 1.18766 32.5657 0.766234C32.5657 0.344805 32.9053 0 33.3581 0H37.2449C38.7543 0 39.9996 1.18766 39.9996 2.64351V13.4091C39.9996 14.6734 39.2449 15.861 38.0751 16.4357L30.6034 20.2286C30.4902 20.2669 30.3393 20.3052 30.226 20.3052Z" fill="#0A4D8D"/>
<path d="M9.4717 20.3052C9.35849 20.3052 9.20755 20.2669 9.09434 20.2286L1.88679 16.474C0.716981 15.8994 0 14.7117 0 13.4474V2.64351C0 1.18766 1.20755 0 2.67925 0H27.9245C28.3396 0 28.6792 0.344805 28.6792 0.766234C28.6792 1.18766 28.3396 1.53247 27.9245 1.53247H2.71698C2.07547 1.53247 1.54717 2.03052 1.54717 2.68182V13.4857C1.54717 14.2136 1.96226 14.8649 2.60377 15.1714L9.81132 18.8877C10.1887 19.0792 10.3396 19.539 10.1509 19.9221C10.0377 20.1519 9.77359 20.3052 9.4717 20.3052Z" fill="#0A4D8D"/>
<path d="M20.0004 59.0002C19.2834 59.0002 18.6041 58.8086 17.9626 58.4638L2.03809 49.1157C1.66073 48.8859 1.54752 48.4261 1.77394 48.043C2.00035 47.6599 2.45318 47.545 2.83054 47.7365L18.7551 57.0846C19.5475 57.5443 20.4909 57.5443 21.2834 57.0846L37.2079 47.7365C38.0004 47.2768 38.4532 46.4339 38.4532 45.5145V26.8567C38.4532 25.9372 37.9626 25.0943 37.2079 24.6346L21.2834 15.3248C20.4909 14.8651 19.5475 14.8651 18.7551 15.3248L2.7928 24.6729C2.00035 25.1326 1.54752 25.9755 1.54752 26.895V41.4534C1.54752 41.8748 1.2079 42.258 0.792803 42.258C0.377709 42.258 0.0380859 41.9132 0.0380859 41.4534V26.895C0.0380859 25.4008 0.830539 24.0599 2.07582 23.332L18.0381 13.9839C19.2834 13.256 20.8305 13.256 22.0758 13.9839L38.0381 23.332C39.2834 24.0599 40.0758 25.4391 40.0758 26.895V45.5528C40.0758 47.0469 39.2834 48.3878 38.0381 49.1157L22.0758 58.4638C21.3966 58.8086 20.7173 59.0002 20.0004 59.0002Z" fill="#FDA529"/>
<path d="M7.54671 27.9674C7.13161 27.9674 6.79199 27.6226 6.79199 27.2011C6.79199 26.933 6.94294 26.6648 7.16935 26.5498L18.4146 20.0752C18.792 19.8453 19.2448 19.9602 19.4712 20.305C19.6977 20.6498 19.5844 21.1479 19.2448 21.3778L19.2071 21.4161L7.9618 27.8524C7.8486 27.9291 7.69765 27.9674 7.54671 27.9674Z" fill="#FDA529"/>
<path d="M20.9808 44.2501L26.2638 47.0085C26.4903 47.1235 26.7167 47.0852 26.9053 46.9702C27.094 46.8553 27.1695 46.6254 27.1318 46.3956L26.1129 40.5339C25.9997 39.8443 26.2261 39.1163 26.7544 38.6183L31.0186 34.4423C31.245 34.2124 31.245 33.8293 31.0186 33.5995C30.9053 33.4845 30.7921 33.4462 30.6789 33.4079L24.7921 32.565C24.0752 32.4501 23.4714 32.0287 23.1695 31.3774L20.528 26.0137C20.377 25.7072 19.9997 25.5923 19.6978 25.7456C19.5846 25.8222 19.4714 25.8988 19.4337 26.0137L16.7921 31.3391C16.4525 31.9904 15.8487 32.4118 15.1695 32.5267L9.24497 33.4079C9.01856 33.4462 8.82988 33.5995 8.75441 33.8293C8.67894 34.0592 8.75441 34.2891 8.90535 34.4423L13.1695 38.6183C13.6978 39.1163 13.9242 39.8443 13.7733 40.5339L12.7544 46.3956C12.7167 46.6254 12.7921 46.8553 12.9808 46.9702C13.1695 47.1235 13.4337 47.1235 13.6223 47.0085L18.9431 44.2501C19.6223 43.9436 20.377 43.9436 20.9808 44.2501ZM26.5657 48.6559C26.2261 48.6559 25.8865 48.5793 25.5469 48.3878L20.2638 45.6293C20.0752 45.5527 19.8487 45.5527 19.6978 45.6293L14.4148 48.3878C13.3582 48.9624 12.0374 48.541 11.5091 47.4683C11.2827 47.0469 11.2072 46.5488 11.2827 46.0891L12.3016 40.2274C12.3393 40.0358 12.2638 39.8443 12.1129 39.691L7.81101 35.5534C6.94309 34.7105 6.94309 33.3696 7.77328 32.4884C8.1129 32.1436 8.52799 31.9137 9.01856 31.8371L14.9431 31.0326C15.1318 30.9943 15.3204 30.8793 15.3959 30.6878L18.0374 25.3624C18.5657 24.2897 19.8865 23.83 20.9431 24.3663C21.3582 24.5962 21.6978 24.941 21.9242 25.3624L24.5657 30.6878C24.6412 30.8793 24.8299 30.9943 25.0186 31.0326L30.9431 31.8754C32.1129 32.0287 32.9431 33.1397 32.7921 34.3274C32.7167 34.7871 32.4902 35.2469 32.1506 35.5917L27.8865 39.7676C27.7355 39.9209 27.6601 40.1124 27.6978 40.304L28.7167 46.1657C28.8676 46.9702 28.528 47.8131 27.8487 48.2728C27.5091 48.5027 27.0563 48.6559 26.5657 48.6559Z" fill="#FDA529"/>
<path d="M19.9998 41.3766C19.5847 41.3766 19.2451 41.0318 19.2451 40.572V35.285C19.2451 34.8636 19.5847 34.4805 19.9998 34.4805C20.4149 34.4805 20.7545 34.8253 20.7545 35.285V40.6103C20.7545 41.0318 20.4149 41.3766 19.9998 41.3766Z" fill="#FDA529"/>
<path d="M22.2641 36.0129H18.1131C17.698 36.0129 17.3584 35.6681 17.3584 35.2467C17.3584 34.8253 17.698 34.4805 18.1131 34.4805H22.2641C22.6792 34.4805 23.0188 34.8253 23.0188 35.2467C23.0188 35.6681 22.6792 36.0129 22.2641 36.0129Z" fill="#FDA529"/>
<path d="M22.2641 41.3767H18.1131C17.698 41.3767 17.3584 41.0319 17.3584 40.6105C17.3584 40.189 17.698 39.8442 18.1131 39.8442H22.2641C22.6792 39.8442 23.0188 40.189 23.0188 40.6105C23.0188 41.0319 22.6792 41.3767 22.2641 41.3767Z" fill="#FDA529"/>
</g>
<defs>
<clipPath id="clip0_547_1486">
<rect width="40" height="59" fill="white"/>
</clipPath>
</defs>
</svg>
