<svg width="21" height="22" viewBox="0 0 21 22" fill="none" xmlns="http://www.w3.org/2000/svg">
<path d="M9 0.700195H12C13.6 0.700195 15 2.0002 15 3.7002V11.0002C15 12.6002 13.7 14.0002 12 14.0002H9C7.4 14.0002 6 12.7002 6 11.0002V3.6002C6 2.0002 7.3 0.700195 9 0.700195Z" stroke="#1C314E"/>
<path d="M17.7996 9.6001C17.7996 10.6001 17.7996 12.0001 17.7996 14.0001C17.7996 15.6001 16.8996 17.0001 15.5996 17.0001H5.29961C3.99961 17.0001 3.09961 15.7001 3.09961 14.0001C3.09961 12.0001 3.09961 10.6001 3.09961 9.6001" stroke="#1C314E" stroke-linecap="round" stroke-linejoin="round"/>
<path d="M10.3994 17.9004V21.3004" stroke="#1C314E" stroke-linecap="square"/>
<path d="M7.5 21.3003H13.4" stroke="#1C314E" stroke-linecap="round" stroke-linejoin="round"/>
</svg>
