<svg width="40" height="58" viewBox="0 0 40 58" fill="none" xmlns="http://www.w3.org/2000/svg">
<g clip-path="url(#clip0_547_1469)">
<path d="M30.226 19.961C29.811 19.961 29.4336 19.6221 29.4336 19.2455C29.4336 18.9818 29.5845 18.7182 29.8487 18.5675L37.3581 14.839C38.0374 14.5 38.4525 13.8597 38.4525 13.1818V2.5987C38.4525 1.9961 37.9242 1.50649 37.2827 1.50649H33.3581C32.943 1.50649 32.5657 1.16753 32.5657 0.753247C32.5657 0.338961 32.9053 0 33.3581 0H37.2449C38.7543 0 39.9996 1.16753 39.9996 2.5987V13.1818C39.9996 14.4247 39.2449 15.5922 38.0751 16.1571L30.6034 19.8857C30.4902 19.9234 30.3393 19.961 30.226 19.961Z" fill="#BFBFBF"/>
<path d="M9.4717 19.961C9.35849 19.961 9.20755 19.9234 9.09434 19.8857L1.88679 16.1948C0.716981 15.6299 0 14.4623 0 13.2195V2.5987C0 1.16753 1.20755 0 2.67925 0H27.9245C28.3396 0 28.6792 0.338961 28.6792 0.753247C28.6792 1.16753 28.3396 1.50649 27.9245 1.50649H2.71698C2.07547 1.50649 1.54717 1.9961 1.54717 2.63636V13.2571C1.54717 13.9727 1.96226 14.613 2.60377 14.9143L9.81132 18.5675C10.1887 18.7558 10.3396 19.2078 10.1509 19.5844C10.0377 19.8104 9.77359 19.961 9.4717 19.961Z" fill="#BFBFBF"/>
<path d="M20.0004 57.9999C19.2834 57.9999 18.6041 57.8116 17.9626 57.4726L2.03809 48.283C1.66073 48.057 1.54752 47.6051 1.77394 47.2285C2.00035 46.8519 2.45318 46.7389 2.83054 46.9272L18.7551 56.1168C19.5475 56.5687 20.4909 56.5687 21.2834 56.1168L37.2079 46.9272C38.0004 46.4752 38.4532 45.6467 38.4532 44.7428V26.4012C38.4532 25.4973 37.9626 24.6687 37.2079 24.2168L21.2834 15.0648C20.4909 14.6129 19.5475 14.6129 18.7551 15.0648L2.7928 24.2544C2.00035 24.7064 1.54752 25.535 1.54752 26.4389V40.7506C1.54752 41.1648 1.2079 41.5415 0.792803 41.5415C0.377709 41.5415 0.0380859 41.2025 0.0380859 40.7506V26.4389C0.0380859 24.97 0.830539 23.6518 2.07582 22.9363L18.0381 13.7466C19.2834 13.0311 20.8305 13.0311 22.0758 13.7466L38.0381 22.9363C39.2834 23.6518 40.0758 25.0077 40.0758 26.4389V44.7804C40.0758 46.2493 39.2834 47.5674 38.0381 48.283L22.0758 57.4726C21.3966 57.8116 20.7173 57.9999 20.0004 57.9999Z" fill="#BFBFBF"/>
<path d="M7.54671 27.4937C7.13161 27.4937 6.79199 27.1547 6.79199 26.7404C6.79199 26.4768 6.94294 26.2132 7.16935 26.1002L18.4146 19.7352C18.792 19.5093 19.2448 19.6223 19.4712 19.9612C19.6977 20.3002 19.5844 20.7898 19.2448 21.0158L19.2071 21.0534L7.9618 27.3807C7.8486 27.456 7.69765 27.4937 7.54671 27.4937Z" fill="#BFBFBF"/>
</g>
<defs>
<clipPath id="clip0_547_1469">
<rect width="40" height="58" fill="white"/>
</clipPath>
</defs>
</svg>
