<svg width="20" height="20" viewBox="0 0 20 20" fill="none" xmlns="http://www.w3.org/2000/svg">
<path d="M13.1 8.5C13.1 9.3 12.6 10.2 11.8 10.9C11.1 11.6 10.3 12.2 10.2 13.3C10.2 13.5 9.80001 13.7 9.60001 13.7C9.40001 13.7 9.00001 13.2 9.00001 13.1C9.20001 12.5 9.40001 11.7 9.70001 11.2C10.1 10.6 10.7 10.2 11.1 9.7C11.7 8.9 11.9 8.1 11.4 7.2C11.1 6.3 10.2 5.9 9.30001 6C8.40001 6.1 7.80001 6.6 7.50001 7.5C7.50001 7.6 7.40001 8 7.30001 8.2C7.10001 8.5 7.00001 8.7 6.80001 8.7C6.50001 8.7 6.20001 8.2 6.20001 8C6.20001 6.6 6.90001 5.6 8.10001 5.1C9.40001 4.5 10.6 4.6 11.8 5.5C12.6 6.2 13.1 7.1 13.1 8.5Z" fill="#6F767D"/>
<path d="M9.70001 16.5C10.2523 16.5 10.7 16.0523 10.7 15.5C10.7 14.9477 10.2523 14.5 9.70001 14.5C9.14773 14.5 8.70001 14.9477 8.70001 15.5C8.70001 16.0523 9.14773 16.5 9.70001 16.5Z" fill="#6F767D"/>
<path d="M9.99999 18.7C14.8049 18.7 18.7 14.8049 18.7 10C18.7 5.19513 14.8049 1.3 9.99999 1.3C5.19511 1.3 1.29999 5.19513 1.29999 10C1.29999 14.8049 5.19511 18.7 9.99999 18.7Z" stroke="#6F767D" stroke-width="1.5" stroke-miterlimit="10"/>
</svg>
