<svg width="44" height="44" viewBox="0 0 44 44" fill="none" xmlns="http://www.w3.org/2000/svg">
<path d="M22.0001 42.5335C33.3404 42.5335 42.5335 33.3404 42.5335 22.0001C42.5335 10.6599 33.3404 1.4668 22.0001 1.4668C10.6599 1.4668 1.4668 10.6599 1.4668 22.0001C1.4668 33.3404 10.6599 42.5335 22.0001 42.5335Z" stroke="#195EA0" stroke-width="2"/>
<path d="M22.0003 26.4001C26.0504 26.4001 29.3337 23.1168 29.3337 19.0667C29.3337 15.0166 26.0504 11.7334 22.0003 11.7334C17.9502 11.7334 14.667 15.0166 14.667 19.0667C14.667 23.1168 17.9502 26.4001 22.0003 26.4001Z" stroke="#195EA0" stroke-width="2"/>
<path d="M34.8234 38.1332C33.4154 31.3983 28.2087 26.3999 22.0003 26.3999C15.8168 26.3999 10.6263 31.3602 9.19336 38.057" stroke="#195EA0" stroke-width="2"/>
</svg>
