<svg width="22" height="22" viewBox="0 0 22 22" fill="none" xmlns="http://www.w3.org/2000/svg">
<path d="M21.7 21.3L19.7 21.1L20.7 21.2L19.7 21.1C19.7 21 19.8 19.6 18.6 18.6C17.8 18 16.7 17.6 15.8 17.3C14.7 16.9 13.9 16.6 13.4 16C12.3 14.5 14.1 10.9 14.9 9.99999C15.4 9.29999 16 4.79999 14.5 3.39999C14.5 3.39999 13.5 2.59999 12.4 2.39999L11 2.19999L9.8 2.39999C8.7 2.59999 7.7 3.39999 7.7 3.39999C6.3 4.79999 6.8 9.29999 7.4 9.99999C8.2 10.9 10.1 14.5 8.9 16C8.4 16.6 7.6 16.9 6.5 17.3C5.6 17.6 4.5 18 3.7 18.6C2.4 19.5 2.6 21 2.6 21L0.6 21.2C0.6 21.1 0.3 18.5 2.6 16.9C3.6 16.1 4.9 15.7 5.9 15.3C6.3 15.3 7 15 7.3 14.8C7.4 14.2 6.6 12 5.9 11.3C4.6 9.89999 4.1 4.09999 6.4 1.99999C6.6 1.89999 7.9 0.699988 9.5 0.499988L11.3 0.299988L12.8 0.499988C14.5 0.799988 15.8 1.89999 15.9 1.99999C18.1 4.19999 17.6 9.99999 16.4 11.4C15.7 12.2 15 14.3 15 14.9C15.2 15.1 15.9 15.3 16.5 15.5C17.5 15.9 18.7 16.3 19.8 17.1C22 18.6 21.7 21.2 21.7 21.3Z" fill="white"/>
</svg>
