<svg width="32" height="32" viewBox="0 0 32 32" fill="none" xmlns="http://www.w3.org/2000/svg">
<path d="M25.2 18.8C25.2 18.8 27.2 20.8 27.7 21.7C27.9 22 28 22.3 27.9 22.5C27.7 22.8 27.2 23 27 23C27 23 23.5 23 23.4 23C23.2 23 22.6 22.9 22 22.5C21.5 22.2 21 21.6 20.6 21.1C19.9 20.3 19.3 19.6 18.7 19.6C18.6 19.6 18.5 19.6 18.5 19.6C18 19.7 17.5 20.4 17.5 22.1C17.5 22.6 17.1 23 16.8 23H15.2C14.6 23 11.8 22.8 9.2 20.1C6.1 16.8 3.2 10.2 3.2 10.1C2.9 9.8 3.3 9.6 3.7 9.6H7.3C7.8 9.6 7.9 9.9 8 10.2C8.1 10.5 8.6 11.7 9.4 13C10.6 15.2 11.4 16.1 12 16.1C12.1 16.1 12.2 16.1 12.3 16C13.1 15.6 13 12.7 12.9 12.1C12.9 12 12.9 10.8 12.5 10.3C12.2 9.9 11.7 9.7 11.4 9.7C11.5 9.6 11.7 9.4 11.9 9.3C12.4 9 13.4 9 14.4 9H15C16.1 9 16.3 9.1 16.7 9.2C17.5 9.4 17.5 9.9 17.4 11.6C17.4 12.1 17.4 12.6 17.4 13.3C17.4 13.4 17.4 13.6 17.4 13.8C17.4 14.7 17.3 15.7 18 16.1C18.1 16.1 18.2 16.2 18.3 16.2C18.5 16.2 19.2 16.2 20.9 13.2C21.7 11.9 22.3 10.3 22.3 10.2C22.3 10.1 22.4 9.9 22.6 9.9C22.7 9.8 22.8 9.8 22.9 9.8H27.1C27.6 9.8 27.9 9.9 27.9 10C28 10.3 27.9 11.1 26 13.8C25.7 14.2 25.4 14.6 25.1 14.9C23.4 16.9 23.4 17 25.2 18.8ZM32 28.3V3.6C32 1.6 30.4 0 28.4 0H3.6C1.5 0 0 1.5 0 3.6V28.4C0 30.4 1.5 32 3.6 32H28.5C30.4 31.9 32 30.3 32 28.3Z" fill="white"/>
</svg>
