<svg width="32" height="32" viewBox="0 0 32 32" fill="none" xmlns="http://www.w3.org/2000/svg">
<path d="M29 16C29 16 29 11.7 28.5 9.7C28.2 8.6 27.3 7.7 26.2 7.4C24.1 6.9 16 6.9 16 6.9C16 6.9 7.9 6.9 5.8 7.4C4.7 7.7 3.8 8.6 3.5 9.7C3 11.8 3 16 3 16C3 16 3 20.3 3.5 22.3C3.8 23.4 4.7 24.3 5.8 24.6C7.8 25.1 16 25.1 16 25.1C16 25.1 24.1 25.1 26.2 24.6C27.3 24.3 28.2 23.4 28.5 22.3C29 20.3 29 16 29 16ZM32 3.4V28.5C32 30.4 30.5 31.9 28.6 31.9H3.4C1.5 32 0 30.5 0 28.6V3.4C0 1.5 1.5 0 3.4 0H28.5C30.5 0 32 1.5 32 3.4ZM13.3 12.2L20.1 16.1L13.3 20V12.2Z" fill="white"/>
</svg>
