<?xml version="1.0" encoding="utf-8"?>
<!-- Generator: Adobe Illustrator 26.3.1, SVG Export Plug-In . SVG Version: 6.00 Build 0)  -->
<svg version="1.1" id="Layer_1" xmlns="http://www.w3.org/2000/svg" xmlns:xlink="http://www.w3.org/1999/xlink" x="0px" y="0px"
	 viewBox="0 0 571.28 335.3" style="enable-background:new 0 0 571.28 335.3;" xml:space="preserve">
<style type="text/css">
	.st0{fill:#ED1C24;}
	.st1{fill:#1D2A58;}
</style>
<path class="st0" d="M533.56,86.36c-16.73-16.4-37.09-24.6-61.09-24.6c-17.96,0-33.86,4.62-47.71,13.83V7.39h-37.97v241.76h37.97
	v-31.12c13.56,9.04,29.22,13.61,47.05,13.61c24.32,0,44.85-8.09,61.58-24.27c16.62-16.29,24.93-36.49,24.93-60.59
	C558.33,122.9,550.07,102.76,533.56,86.36z M507.31,184.43c-8.7,9.36-20.31,14.03-34.84,14.03c-14.42,0-26.03-4.73-34.84-14.2
	c-8.59-9.36-12.88-22.07-12.88-38.14c0-14.97,4.4-27.19,13.21-36.65c8.81-9.47,20.31-14.2,34.51-14.2c14.42,0,26.03,4.73,34.84,14.2
	c8.69,9.36,13.04,21.85,13.04,37.48C520.36,162.58,516.01,175.07,507.31,184.43z"/>
<path class="st1" d="M341.68,7.39v66.59c-13.92-9.24-29.88-13.85-47.88-13.85c-23.88,0-44.14,8.15-60.76,24.44
	c-16.62,16.29-24.93,36.05-24.93,59.27c0,24.66,8.14,45.13,24.43,61.42c16.29,16.51,36.49,24.77,60.59,24.77
	c18.34,0,34.52-4.63,48.54-13.83v13.83h37.97V7.39H341.68z M328.64,182.8c-8.69,9.36-20.31,14.03-34.84,14.03
	c-14.42,0-26.03-4.73-34.84-14.2c-8.59-9.36-12.88-22.07-12.88-38.14c0-14.97,4.4-27.19,13.21-36.65
	c8.81-9.47,20.31-14.2,34.51-14.2c14.42,0,26.03,4.73,34.84,14.2c8.7,9.36,13.04,21.85,13.04,37.48
	C341.68,160.95,337.34,173.44,328.64,182.8z"/>
<polygon class="st1" points="53.36,59.62 53.28,59.66 53.28,59.62 15.31,59.62 15.31,230.02 53.28,230.02 53.28,135.43 
	107.86,229.97 162.77,135.43 162.77,230.02 200.74,230.02 200.74,59.62 162.77,59.62 162.77,59.66 162.69,59.62 108.02,154.3 "/>
<path class="st0" d="M498.39,136.71h-15.67v-15.67c0-2.31-1.87-4.18-4.18-4.18h-11.97c-2.31,0-4.18,1.87-4.18,4.18v15.67h-15.67
	c-2.31,0-4.18,1.87-4.18,4.18v11.97c0,2.31,1.87,4.18,4.18,4.18h15.67v15.67c0,2.31,1.87,4.18,4.18,4.18h11.97
	c2.31,0,4.18-1.87,4.18-4.18v-15.67h15.67c2.31,0,4.18-1.87,4.18-4.18v-11.97C502.57,138.58,500.7,136.71,498.39,136.71z"/>
<g>
	<g>
		<path class="st1" d="M26.16,281.55h-9.04v-21.52h9.04v3.05H20.5v6.11h4.87v3.05H20.5v6.25h5.65V281.55z"/>
		<path class="st1" d="M39.3,275.38c0,1.27-0.1,2.26-0.3,2.96c-0.2,0.7-0.56,1.32-1.09,1.84c-0.91,0.91-2.32,1.36-4.23,1.36h-5.35
			v-21.52h5.38c1.91,0,3.3,0.45,4.17,1.33c0.5,0.5,0.86,1.08,1.06,1.72c0.2,0.65,0.3,1.54,0.3,2.69c0,1.65-0.41,2.9-1.24,3.75
			c-0.34,0.34-0.72,0.6-1.12,0.76c0.48,0.22,0.88,0.48,1.18,0.79C38.89,271.9,39.3,273.35,39.3,275.38z M35.86,265.98
			c0-1.05-0.19-1.79-0.56-2.24c-0.37-0.44-1-0.67-1.89-0.67h-1.69v5.83h1.69c0.87,0,1.49-0.23,1.87-0.69S35.86,267.01,35.86,265.98z
			 M35.92,275.14c0-1.19-0.2-2.04-0.6-2.57c-0.4-0.52-1.06-0.78-1.96-0.78h-1.63v6.71h1.63c0.93,0,1.59-0.25,1.98-0.76
			C35.72,277.23,35.92,276.37,35.92,275.14z"/>
		<path class="st1" d="M52.78,266.59c0,2.26-0.44,3.91-1.31,4.96c-0.88,1.05-2.28,1.57-4.22,1.57h-2.02v8.43h-3.39v-21.52h5.41
			c1.93,0,3.34,0.52,4.22,1.57C52.34,262.65,52.78,264.31,52.78,266.59z M48.91,269.2c0.32-0.57,0.48-1.44,0.48-2.61
			c0-1.17-0.16-2.05-0.48-2.63c-0.32-0.59-0.92-0.88-1.78-0.88h-1.9v6.98h1.9C47.99,270.06,48.59,269.77,48.91,269.2z"/>
		<path class="st1" d="M65.57,281.55h-3.54l-0.88-4.26h-4.99l-0.85,4.26h-3.57l5.29-21.52h3.29L65.57,281.55z M60.52,274.23
			l-1.84-9.01l-1.84,9.01H60.52z"/>
		<path class="st1" d="M76.75,275.56c0,2.1-0.45,3.64-1.36,4.62c-0.99,1.07-2.38,1.6-4.17,1.6c-1.71,0-3.01-0.44-3.9-1.33
			c-1.01-1.01-1.54-2.54-1.6-4.59h3.39c0,0.97,0.2,1.71,0.6,2.24c0.38,0.42,0.89,0.63,1.51,0.63c0.64,0,1.14-0.2,1.48-0.6
			c0.44-0.52,0.67-1.42,0.67-2.69c0-1.37-0.24-2.31-0.73-2.81c-0.36-0.36-0.84-0.54-1.42-0.54h-1.69v-2.87h1.69
			c0.58,0,1.04-0.17,1.36-0.51c0.46-0.48,0.69-1.38,0.69-2.69c0-1.27-0.2-2.13-0.6-2.57c-0.34-0.4-0.83-0.6-1.45-0.6
			c-0.63,0-1.12,0.21-1.48,0.63c-0.38,0.51-0.59,1.25-0.63,2.24h-3.36c0.02-1.93,0.54-3.45,1.57-4.53c0.93-0.93,2.23-1.39,3.9-1.39
			c1.75,0,3.1,0.5,4.05,1.51c0.52,0.56,0.89,1.2,1.09,1.89c0.2,0.69,0.3,1.6,0.3,2.71c0,1.51-0.31,2.66-0.94,3.45
			c-0.38,0.5-0.86,0.92-1.42,1.24c0.56,0.28,1.05,0.68,1.45,1.18C76.41,272.56,76.75,273.83,76.75,275.56z"/>
		<path class="st1" d="M82.25,281.55h-2.99v-21.52h3.39v13.18l4.8-13.18h3.02v21.52h-3.38v-13.18L82.25,281.55z"/>
		<path class="st1" d="M96.33,281.55h-2.99v-21.52h3.39v13.18l4.8-13.18h3.02v21.52h-3.38v-13.18L96.33,281.55z M102.8,255.16
			c-0.08,2.34-1.37,3.51-3.87,3.51c-2.5,0-3.79-1.17-3.87-3.51h2.27c0.06,0.93,0.59,1.39,1.6,1.39c1.01,0,1.54-0.46,1.6-1.39H102.8z
			"/>
		<path class="st1" d="M118.09,275.83c-0.06,2.04-0.66,3.56-1.78,4.59c-0.97,0.91-2.21,1.36-3.72,1.36c-1.75,0-3.14-0.61-4.17-1.84
			c-0.67-0.81-1.09-1.84-1.28-3.1c-0.19-1.26-0.29-3.28-0.29-6.06s0.1-4.8,0.29-6.06c0.19-1.26,0.62-2.29,1.28-3.1
			c1.03-1.23,2.42-1.84,4.17-1.84c1.53,0,2.79,0.46,3.78,1.39c1.09,0.99,1.66,2.5,1.72,4.53h-3.39c-0.04-0.97-0.21-1.66-0.51-2.09
			c-0.32-0.52-0.86-0.78-1.6-0.78c-0.73,0-1.26,0.27-1.6,0.82c-0.3,0.48-0.5,1.25-0.6,2.31c-0.1,1.06-0.15,2.67-0.15,4.82
			c0,2.16,0.05,3.76,0.15,4.82c0.1,1.06,0.3,1.83,0.6,2.31c0.34,0.54,0.88,0.81,1.6,0.81c0.74,0,1.28-0.26,1.6-0.78
			c0.3-0.46,0.47-1.17,0.51-2.11H118.09z"/>
		<path class="st1" d="M123.5,281.55h-3.38v-21.52h3.38V281.55z M132.54,281.55h-3.75l-5.23-11.21l4.84-10.31h3.57l-4.93,10.16
			L132.54,281.55z"/>
		<path class="st1" d="M136.77,281.55h-2.99v-21.52h3.39v13.18l4.8-13.18h3.02v21.52h-3.38v-13.18L136.77,281.55z"/>
		<path class="st1" d="M150.85,281.55h-2.99v-21.52h3.39v13.18l4.8-13.18h3.02v21.52h-3.38v-13.18L150.85,281.55z M157.32,255.16
			c-0.08,2.34-1.37,3.51-3.87,3.51c-2.5,0-3.79-1.17-3.87-3.51h2.27c0.06,0.93,0.59,1.39,1.6,1.39c1.01,0,1.54-0.46,1.6-1.39H157.32
			z"/>
		<path class="st1" d="M169.59,281.55h-2.99v-21.52h3.39v13.18l4.8-13.18h3.02v21.52h-3.38v-13.18L169.59,281.55z"/>
		<path class="st1" d="M191.65,281.55h-3.39v-9.4h-4.2v9.4h-3.39v-21.52h3.39v9.07h4.2v-9.07h3.39V281.55z"/>
		<path class="st1" d="M210.18,266.54c0.16,0.98,0.24,2.18,0.24,3.61c0,1.43-0.08,2.63-0.24,3.6c-0.16,0.97-0.46,1.88-0.91,2.73
			c-0.44,0.86-1.12,1.5-2.02,1.93c-0.91,0.43-2.05,0.68-3.42,0.74v2.54h-3.38v-2.54c-1.09-0.04-2.03-0.22-2.83-0.53
			c-0.8-0.31-1.43-0.71-1.9-1.2c-0.47-0.48-0.85-1.12-1.13-1.9c-0.28-0.79-0.47-1.59-0.56-2.42c-0.09-0.82-0.14-1.81-0.14-2.96
			c0-1.47,0.08-2.71,0.26-3.7c0.17-1,0.49-1.91,0.95-2.73c0.46-0.83,1.13-1.45,2.01-1.86c0.88-0.41,1.99-0.65,3.34-0.71v-2.09h3.38
			v2.09c1.37,0.06,2.51,0.31,3.42,0.74c0.91,0.43,1.58,1.07,2.02,1.92C209.71,264.65,210.02,265.56,210.18,266.54z M200.51,276.19
			v-12.12c-1.35,0.06-2.23,0.54-2.63,1.43c-0.4,0.9-0.6,2.44-0.6,4.64c0,2.19,0.2,3.74,0.6,4.62
			C198.28,275.66,199.16,276.14,200.51,276.19z M206.41,274.78c0.41-0.89,0.62-2.43,0.62-4.62c0-2.2-0.21-3.74-0.62-4.64
			c-0.41-0.9-1.29-1.38-2.64-1.43v12.12C205.12,276.14,206,275.66,206.41,274.78z"/>
		<path class="st1" d="M223.29,264.7c0.18,1.26,0.27,3.29,0.27,6.09c0,2.8-0.09,4.83-0.27,6.09s-0.61,2.28-1.3,3.07
			c-1.03,1.23-2.42,1.84-4.17,1.84c-1.75,0-3.14-0.61-4.17-1.84c-0.67-0.81-1.09-1.84-1.28-3.1c-0.19-1.26-0.29-3.28-0.29-6.06
			s0.1-4.8,0.29-6.06c0.19-1.26,0.62-2.29,1.28-3.1c1.03-1.23,2.42-1.84,4.17-1.84c1.75,0,3.14,0.61,4.17,1.84
			C222.68,262.41,223.11,263.44,223.29,264.7z M220.04,275.61c0.09-1.06,0.14-2.66,0.14-4.82c0-2.15-0.05-3.76-0.14-4.82
			s-0.29-1.83-0.59-2.31c-0.34-0.54-0.89-0.82-1.63-0.82c-0.73,0-1.26,0.27-1.6,0.82c-0.5,0.81-0.76,3.18-0.76,7.13
			s0.25,6.33,0.76,7.13c0.34,0.54,0.88,0.81,1.6,0.81c0.74,0,1.29-0.27,1.63-0.81C219.76,277.44,219.95,276.66,220.04,275.61z"/>
		<path class="st1" d="M236.8,266.59c0,2.26-0.44,3.91-1.31,4.96c-0.88,1.05-2.28,1.57-4.22,1.57h-2.02v8.43h-3.39v-21.52h5.41
			c1.93,0,3.34,0.52,4.22,1.57C236.36,262.65,236.8,264.31,236.8,266.59z M232.93,269.2c0.32-0.57,0.48-1.44,0.48-2.61
			c0-1.17-0.16-2.05-0.48-2.63c-0.32-0.59-0.92-0.88-1.78-0.88h-1.9v6.98h1.9C232.02,270.06,232.61,269.77,232.93,269.2z"/>
		<path class="st1" d="M253.39,281.55h-3.39v-13.42l-2.93,8.83h-1.87l-2.87-8.67v13.27h-3.39v-21.52H242l4.17,11.3l4.14-11.3h3.08
			V281.55z"/>
		<path class="st1" d="M268.38,281.55h-3.54l-0.88-4.26h-4.99l-0.85,4.26h-3.57l5.29-21.52h3.29L268.38,281.55z M263.34,274.23
			l-1.84-9.01l-1.84,9.01H263.34z"/>
		<path class="st1" d="M282.38,285.87h-3.2v-4.32h-9.55v-21.52h3.39v18.47h4.17v-18.47h3.39v18.47h1.81V285.87z"/>
		<path class="st1" d="M287.18,281.55h-2.99v-21.52h3.39v13.18l4.8-13.18h3.02v21.52h-3.38v-13.18L287.18,281.55z"/>
		<path class="st1" d="M308.91,264.7c0.18,1.26,0.27,3.29,0.27,6.09c0,2.8-0.09,4.83-0.27,6.09c-0.18,1.26-0.61,2.28-1.3,3.07
			c-1.03,1.23-2.42,1.84-4.17,1.84c-1.75,0-3.14-0.61-4.17-1.84c-0.67-0.81-1.09-1.84-1.28-3.1c-0.19-1.26-0.29-3.28-0.29-6.06
			s0.1-4.8,0.29-6.06c0.19-1.26,0.62-2.29,1.28-3.1c1.03-1.23,2.42-1.84,4.17-1.84c1.75,0,3.14,0.61,4.17,1.84
			C308.3,262.41,308.73,263.44,308.91,264.7z M305.66,275.61c0.09-1.06,0.14-2.66,0.14-4.82c0-2.15-0.05-3.76-0.14-4.82
			c-0.09-1.06-0.29-1.83-0.59-2.31c-0.34-0.54-0.89-0.82-1.63-0.82c-0.73,0-1.26,0.27-1.6,0.82c-0.5,0.81-0.76,3.18-0.76,7.13
			s0.25,6.33,0.76,7.13c0.34,0.54,0.88,0.81,1.6,0.81c0.74,0,1.29-0.27,1.63-0.81C305.37,277.44,305.57,276.66,305.66,275.61z"/>
		<path class="st1" d="M322.45,281.55h-3.39v-9.4h-4.2v9.4h-3.39v-21.52h3.39v9.07h4.2v-9.07h3.39V281.55z"/>
		<path class="st1" d="M336.29,281.55h-3.39v-9.4h-4.2v9.4h-3.39v-21.52h3.39v9.07h4.2v-9.07h3.39V281.55z"/>
		<path class="st1" d="M349.8,264.7c0.18,1.26,0.27,3.29,0.27,6.09c0,2.8-0.09,4.83-0.27,6.09c-0.18,1.26-0.61,2.28-1.3,3.07
			c-1.03,1.23-2.42,1.84-4.17,1.84c-1.75,0-3.14-0.61-4.17-1.84c-0.67-0.81-1.09-1.84-1.28-3.1c-0.19-1.26-0.29-3.28-0.29-6.06
			s0.1-4.8,0.29-6.06c0.19-1.26,0.62-2.29,1.28-3.1c1.03-1.23,2.42-1.84,4.17-1.84c1.75,0,3.14,0.61,4.17,1.84
			C349.19,262.41,349.62,263.44,349.8,264.7z M346.55,275.61c0.09-1.06,0.14-2.66,0.14-4.82c0-2.15-0.05-3.76-0.14-4.82
			s-0.29-1.83-0.59-2.31c-0.34-0.54-0.89-0.82-1.63-0.82c-0.73,0-1.26,0.27-1.6,0.82c-0.5,0.81-0.76,3.18-0.76,7.13
			s0.25,6.33,0.76,7.13c0.34,0.54,0.88,0.81,1.6,0.81c0.74,0,1.29-0.27,1.63-0.81C346.26,277.44,346.46,276.66,346.55,275.61z"/>
		<path class="st1" d="M358.08,274.35h-6.1v-3.05h6.1V274.35z"/>
		<path class="st1" d="M371.17,264.7c0.18,1.26,0.27,3.29,0.27,6.09c0,2.8-0.09,4.83-0.27,6.09c-0.18,1.26-0.61,2.28-1.3,3.07
			c-1.03,1.23-2.42,1.84-4.17,1.84c-1.75,0-3.14-0.61-4.17-1.84c-0.67-0.81-1.09-1.84-1.28-3.1c-0.19-1.26-0.29-3.28-0.29-6.06
			s0.1-4.8,0.29-6.06c0.19-1.26,0.62-2.29,1.28-3.1c1.03-1.23,2.42-1.84,4.17-1.84c1.75,0,3.14,0.61,4.17,1.84
			C370.55,262.41,370.99,263.44,371.17,264.7z M367.92,275.61c0.09-1.06,0.14-2.66,0.14-4.82c0-2.15-0.05-3.76-0.14-4.82
			c-0.09-1.06-0.29-1.83-0.59-2.31c-0.34-0.54-0.89-0.82-1.63-0.82c-0.73,0-1.26,0.27-1.6,0.82c-0.5,0.81-0.76,3.18-0.76,7.13
			s0.25,6.33,0.76,7.13c0.34,0.54,0.88,0.81,1.6,0.81c0.74,0,1.29-0.27,1.63-0.81C367.63,277.44,367.83,276.66,367.92,275.61z"/>
		<path class="st1" d="M384.68,274.99c0,2.28-0.44,3.94-1.31,4.99c-0.88,1.05-2.28,1.57-4.22,1.57h-5.41v-21.52h10v3.02h-6.62v5.41
			h2.02c1.93,0,3.34,0.52,4.22,1.57C384.24,271.08,384.68,272.73,384.68,274.99z M380.81,277.62c0.32-0.58,0.48-1.46,0.48-2.63
			c0-1.17-0.16-2.04-0.48-2.61c-0.32-0.58-0.92-0.86-1.78-0.86h-1.9v6.98h1.9C379.89,278.49,380.49,278.2,380.81,277.62z"/>
		<path class="st1" d="M397.85,266.59c0,2.26-0.44,3.91-1.31,4.96c-0.88,1.05-2.28,1.57-4.22,1.57h-2.02v8.43h-3.39v-21.52h5.41
			c1.93,0,3.34,0.52,4.22,1.57C397.41,262.65,397.85,264.31,397.85,266.59z M393.98,269.2c0.32-0.57,0.48-1.44,0.48-2.61
			c0-1.17-0.16-2.05-0.48-2.63c-0.32-0.59-0.92-0.88-1.78-0.88h-1.9v6.98h1.9C393.07,270.06,393.66,269.77,393.98,269.2z"/>
		<path class="st1" d="M410.64,281.55h-3.54l-0.88-4.26h-4.99l-0.85,4.26h-3.57l5.29-21.52h3.29L410.64,281.55z M405.59,274.23
			l-1.84-9.01l-1.84,9.01H405.59z"/>
		<path class="st1" d="M421.82,275.56c0,2.1-0.45,3.64-1.36,4.62c-0.99,1.07-2.38,1.6-4.17,1.6c-1.71,0-3.01-0.44-3.9-1.33
			c-1.01-1.01-1.54-2.54-1.6-4.59h3.39c0,0.97,0.2,1.71,0.6,2.24c0.38,0.42,0.89,0.63,1.51,0.63c0.64,0,1.14-0.2,1.48-0.6
			c0.44-0.52,0.67-1.42,0.67-2.69c0-1.37-0.24-2.31-0.73-2.81c-0.36-0.36-0.84-0.54-1.42-0.54h-1.69v-2.87h1.69
			c0.58,0,1.04-0.17,1.36-0.51c0.46-0.48,0.69-1.38,0.69-2.69c0-1.27-0.2-2.13-0.6-2.57c-0.34-0.4-0.83-0.6-1.45-0.6
			c-0.63,0-1.12,0.21-1.48,0.63c-0.38,0.51-0.59,1.25-0.63,2.24h-3.36c0.02-1.93,0.54-3.45,1.57-4.53c0.93-0.93,2.23-1.39,3.9-1.39
			c1.75,0,3.1,0.5,4.05,1.51c0.52,0.56,0.89,1.2,1.09,1.89s0.3,1.6,0.3,2.71c0,1.51-0.31,2.66-0.94,3.45
			c-0.38,0.5-0.86,0.92-1.42,1.24c0.56,0.28,1.05,0.68,1.45,1.18C421.49,272.56,421.82,273.83,421.82,275.56z"/>
		<path class="st1" d="M434.97,264.7c0.18,1.26,0.27,3.29,0.27,6.09c0,2.8-0.09,4.83-0.27,6.09c-0.18,1.26-0.61,2.28-1.3,3.07
			c-1.03,1.23-2.42,1.84-4.17,1.84c-1.75,0-3.14-0.61-4.17-1.84c-0.67-0.81-1.09-1.84-1.28-3.1c-0.19-1.26-0.29-3.28-0.29-6.06
			s0.1-4.8,0.29-6.06c0.19-1.26,0.62-2.29,1.28-3.1c1.03-1.23,2.42-1.84,4.17-1.84c1.75,0,3.14,0.61,4.17,1.84
			C434.35,262.41,434.78,263.44,434.97,264.7z M431.72,275.61c0.09-1.06,0.14-2.66,0.14-4.82c0-2.15-0.05-3.76-0.14-4.82
			s-0.29-1.83-0.59-2.31c-0.34-0.54-0.89-0.82-1.63-0.82c-0.73,0-1.26,0.27-1.6,0.82c-0.5,0.81-0.76,3.18-0.76,7.13
			s0.25,6.33,0.76,7.13c0.34,0.54,0.88,0.81,1.6,0.81c0.74,0,1.29-0.27,1.63-0.81C431.43,277.44,431.63,276.66,431.72,275.61z"/>
		<path class="st1" d="M448.51,275.38c0,1.27-0.1,2.26-0.3,2.96c-0.2,0.7-0.56,1.32-1.09,1.84c-0.91,0.91-2.32,1.36-4.23,1.36h-5.35
			v-21.52h5.38c1.91,0,3.3,0.45,4.17,1.33c0.5,0.5,0.86,1.08,1.06,1.72c0.2,0.65,0.3,1.54,0.3,2.69c0,1.65-0.41,2.9-1.24,3.75
			c-0.34,0.34-0.72,0.6-1.12,0.76c0.48,0.22,0.88,0.48,1.18,0.79C448.09,271.9,448.51,273.35,448.51,275.38z M445.06,265.98
			c0-1.05-0.19-1.79-0.56-2.24c-0.37-0.44-1-0.67-1.89-0.67h-1.69v5.83h1.69c0.87,0,1.49-0.23,1.87-0.69
			C444.87,267.75,445.06,267.01,445.06,265.98z M445.12,275.14c0-1.19-0.2-2.04-0.6-2.57c-0.4-0.52-1.06-0.78-1.96-0.78h-1.63v6.71
			h1.63c0.93,0,1.59-0.25,1.98-0.76C444.92,277.23,445.12,276.37,445.12,275.14z"/>
		<path class="st1" d="M463.04,281.55h-3.54l-0.88-4.26h-4.99l-0.85,4.26h-3.57l5.29-21.52h3.29L463.04,281.55z M457.99,274.23
			l-1.84-9.01l-1.84,9.01H457.99z"/>
		<path class="st1" d="M472.5,263.08h-3.63v18.47h-3.39v-18.47h-3.6v-3.05h10.61V263.08z"/>
		<path class="st1" d="M483.23,281.55h-9.04v-21.52h9.04v3.05h-5.65v6.11h4.87v3.05h-4.87v6.25h5.65V281.55z"/>
		<path class="st1" d="M497.25,281.55h-3.38v-18.47h-3.42v9.28c0,2-0.14,3.63-0.41,4.91c-0.27,1.28-0.68,2.22-1.22,2.81
			c-0.54,0.59-1.1,0.99-1.68,1.18c-0.57,0.19-1.29,0.29-2.16,0.29h-1v-3.05h0.3c0.36,0,0.66-0.03,0.91-0.09
			c0.24-0.06,0.5-0.21,0.77-0.45c0.27-0.24,0.49-0.59,0.65-1.04c0.16-0.45,0.3-1.09,0.41-1.92c0.11-0.82,0.17-1.83,0.17-3.02v-11.94
			h10.06V281.55z"/>
		<path class="st1" d="M511.06,274.99c0,2.28-0.44,3.94-1.31,4.99c-0.88,1.05-2.28,1.57-4.22,1.57h-5.41v-21.52h3.39v8.43h2.02
			c1.93,0,3.34,0.52,4.22,1.57C510.62,271.08,511.06,272.73,511.06,274.99z M507.2,277.62c0.32-0.58,0.48-1.46,0.48-2.63
			c0-1.17-0.16-2.04-0.48-2.61c-0.32-0.58-0.92-0.86-1.78-0.86h-1.9v6.98h1.9C506.28,278.49,506.87,278.2,507.2,277.62z"/>
		<path class="st1" d="M524.18,281.55h-3.39v-9.4h-4.2v9.4h-3.39v-21.52h3.39v9.07h4.2v-9.07h3.39V281.55z"/>
		<path class="st1" d="M537.99,274.99c0,2.28-0.44,3.94-1.31,4.99c-0.88,1.05-2.28,1.57-4.22,1.57h-5.41v-21.52h3.39v8.43h2.02
			c1.93,0,3.34,0.52,4.22,1.57C537.55,271.08,537.99,272.73,537.99,274.99z M534.12,277.62c0.32-0.58,0.48-1.46,0.48-2.63
			c0-1.17-0.16-2.04-0.48-2.61c-0.32-0.58-0.92-0.86-1.78-0.86h-1.9v6.98h1.9C533.21,278.49,533.8,278.2,534.12,277.62z
			 M543.22,281.55h-3.39v-21.52h3.39V281.55z"/>
		<path class="st1" d="M549.05,281.55h-2.99v-21.52h3.39v13.18l4.8-13.18h3.02v21.52h-3.38v-13.18L549.05,281.55z M555.52,255.16
			c-0.08,2.34-1.37,3.51-3.87,3.51c-2.5,0-3.79-1.17-3.87-3.51h2.27c0.06,0.93,0.59,1.39,1.6,1.39c1.01,0,1.54-0.46,1.6-1.39H555.52
			z"/>
	</g>
</g>
<rect x="386.79" y="290.36" class="st0" width="37.97" height="37.97"/>
</svg>
